<?xml version="1.0" encoding="UTF-8"?>
<svg id="Layer_2" data-name="Layer 2" xmlns="http://www.w3.org/2000/svg" xmlns:xlink="http://www.w3.org/1999/xlink" viewBox="0 0 314.47 65.31">
  <defs>
    <style>
      .cls-1 {
        fill: url(#linear-gradient);
        opacity: .87;
        stroke-width: 0px;
      }
    </style>
    <linearGradient id="linear-gradient" x1="157.23" y1="72.4" x2="157.23" y2="6.77" gradientUnits="userSpaceOnUse">
      <stop offset="0" stop-color="#fff" stop-opacity="0"/>
      <stop offset="0" stop-color="rgba(255, 255, 255, .04)" stop-opacity=".04"/>
      <stop offset=".05" stop-color="rgba(255, 255, 255, .22)" stop-opacity=".22"/>
      <stop offset=".09" stop-color="rgba(255, 255, 255, .39)" stop-opacity=".39"/>
      <stop offset=".14" stop-color="rgba(255, 255, 255, .53)" stop-opacity=".53"/>
      <stop offset=".19" stop-color="rgba(255, 255, 255, .66)" stop-opacity=".66"/>
      <stop offset=".25" stop-color="rgba(255, 255, 255, .77)" stop-opacity=".77"/>
      <stop offset=".32" stop-color="rgba(255, 255, 255, .85)" stop-opacity=".85"/>
      <stop offset=".4" stop-color="rgba(255, 255, 255, .92)" stop-opacity=".92"/>
      <stop offset=".49" stop-color="rgba(255, 255, 255, .97)" stop-opacity=".97"/>
      <stop offset=".62" stop-color="rgba(255, 255, 255, .99)" stop-opacity=".99"/>
      <stop offset=".99" stop-color="#fff"/>
    </linearGradient>
  </defs>
  <g id="_500X500" data-name="500X500">
    <path class="cls-1" d="M275.96,47.95c-5.82-4.22-11.89-9.53-19.05-8.98-7.62.59-15.24,7.78-21.88,3.99-3.57-2.03-4.88-6.4-6.65-10.11-3.05-6.38-9.15-12.03-16.23-11.77-9.59.35-17.39,11.1-26.74,8.95-7.36-1.69-10.45-10.15-14.77-16.33C164.97,5.6,155.38.38,145.5.02c-9.88-.36-19.82,4.14-26.07,11.8-3.34,4.1-5.64,8.99-9.17,12.92-3.53,3.94-8.96,6.9-14.02,5.38-4.3-1.29-7.17-5.41-11.26-7.28-6.14-2.81-13.69.27-18.1,5.4-4.65,5.42-4.73,13-8.84,18.35-5.05,6.57-13.18,4.18-19.97,2.77-8.18-1.7-16.95-.36-24.25,3.7-4.29,2.39-9.98,6.99-13.82,9.91v2.32h276.2c12.79,0,25.51-1.91,38.27-2.86-13.82-1.28-27.27-6.35-38.51-14.5Z"/>
  </g>
</svg>