<?xml version="1.0" encoding="UTF-8"?>
<svg id="Layer_2" data-name="Layer 2" xmlns="http://www.w3.org/2000/svg" xmlns:xlink="http://www.w3.org/1999/xlink" viewBox="0 0 253.28 56.65">
  <defs>
    <style>
      .cls-1 {
        fill: url(#linear-gradient);
        opacity: .85;
        stroke-width: 0px;
      }
    </style>
    <linearGradient id="linear-gradient" x1="-4610.35" y1="56.65" x2="-4610.35" y2="0" gradientTransform="translate(-4483.71) rotate(-180) scale(1 -1)" gradientUnits="userSpaceOnUse">
      <stop offset="0" stop-color="#fff" stop-opacity="0"/>
      <stop offset="0" stop-color="rgba(255, 255, 255, .04)" stop-opacity=".04"/>
      <stop offset=".05" stop-color="rgba(255, 255, 255, .22)" stop-opacity=".22"/>
      <stop offset=".09" stop-color="rgba(255, 255, 255, .39)" stop-opacity=".39"/>
      <stop offset=".14" stop-color="rgba(255, 255, 255, .53)" stop-opacity=".53"/>
      <stop offset=".19" stop-color="rgba(255, 255, 255, .66)" stop-opacity=".66"/>
      <stop offset=".25" stop-color="rgba(255, 255, 255, .77)" stop-opacity=".77"/>
      <stop offset=".32" stop-color="rgba(255, 255, 255, .85)" stop-opacity=".85"/>
      <stop offset=".4" stop-color="rgba(255, 255, 255, .92)" stop-opacity=".92"/>
      <stop offset=".49" stop-color="rgba(255, 255, 255, .97)" stop-opacity=".97"/>
      <stop offset=".62" stop-color="rgba(255, 255, 255, .99)" stop-opacity=".99"/>
      <stop offset=".99" stop-color="#fff"/>
    </linearGradient>
  </defs>
  <g id="_500X500" data-name="500X500">
    <path class="cls-1" d="M39.13,42.57c3.18.66,6.43,1.91,9.58,1.13,4.42-1.09,6.89-5.63,9.3-9.5,2.4-3.87,6.28-7.9,10.74-6.97,3.61.75,5.89,4.5,9.39,5.67,4.42,1.48,9.18-1.74,11.62-5.72,2.43-3.98,3.37-8.69,5.45-12.87,3.72-7.47,11.26-12.9,19.52-14.06,8.26-1.16,17.01,1.97,22.65,8.12,2.36,2.57,4.43,5.79,7.78,6.78,6.18,1.83,11.98-5.01,18.41-4.53,11.35.84,8,12.89,19.38,13.05,4.19.06,13.56,1.83,16.5,4.82,19.84,20.18,24.32-1.28,41.32,11.72,5.79,4.43,12.51,15.57,12.51,15.57H12.84c-4.29,0-8.56.59-12.84.89,11.65-8.27,25.14-16.97,39.13-14.09Z"/>
  </g>
</svg>